<svg width="38" height="38" viewBox="0 0 38 38" fill="none" xmlns="http://www.w3.org/2000/svg">
<g id="Group 1000001946">
<circle id="Ellipse 2" cx="19" cy="19" r="18.5" fill="#19664D" stroke="#F7F8FC"/>
<path id="Vector" d="M25.6976 36.2344L25.697 36.2346C23.5877 37.0515 21.2725 37.5 18.8473 37.5C16.4253 37.5 14.1125 37.0499 12.0013 36.2372L11.9759 36.2265L11.9689 36.2235L11.9618 36.2207C9.79622 35.3809 7.8456 34.1548 6.21277 32.6401L5.07214 31.2253C5.43651 31.081 5.88911 30.9242 6.40792 30.7564C7.01008 30.5616 7.68026 30.3583 8.3764 30.1471C8.63977 30.0673 8.90685 29.9863 9.17536 29.9042C10.1484 29.6067 11.136 29.296 12.0023 28.9806C12.8598 28.6684 13.6351 28.3387 14.1634 27.9954L14.2419 27.9445L14.2966 27.8685C14.4657 27.6339 14.6315 27.3143 14.7798 27.0013L14.7806 26.9996C15.0074 26.5164 15.2136 25.9914 15.3426 25.6366L15.4458 25.3527L15.2425 25.1292C14.7368 24.5735 14.2966 23.9401 13.8599 23.2909L13.8596 23.2905L12.414 21.1466L12.4142 21.1465L12.4061 21.1351C11.906 20.4365 11.6925 19.8638 11.6792 19.4528L11.6791 19.4517C11.6727 19.2667 11.7068 19.1169 11.7701 18.9905L11.7711 18.9885C11.8357 18.8581 11.9347 18.7457 12.0837 18.6532L12.0837 18.6532L12.089 18.6498C12.1577 18.6059 12.2359 18.5683 12.3246 18.5395L12.7009 18.4172L12.6684 18.0229C12.5746 16.8849 12.5422 15.4499 12.6 14.2494C12.6266 14.0006 12.6815 13.7431 12.7573 13.4802C13.0833 12.4034 13.9051 11.5041 14.9752 10.8691L14.976 10.8687C15.5636 10.5185 16.2139 10.254 16.8943 10.0752L16.8958 10.0748C17.1072 10.0185 17.2611 9.87524 17.341 9.69431C17.4088 9.54067 17.4127 9.38566 17.4071 9.28016C17.3966 9.08051 17.3361 8.85279 17.2928 8.68994C17.2908 8.68223 17.2887 8.67467 17.2868 8.66726C17.2742 8.61988 17.263 8.57712 17.2532 8.53852C18.2255 8.5462 19.4699 8.91634 20.7053 9.49458C22.0829 10.1394 23.3577 10.9998 24.1078 11.7537C24.3089 11.9623 24.6324 12.3781 24.904 12.9126C25.1756 13.4474 25.3793 14.0694 25.3806 14.6984L25.291 18.1877L25.281 18.5752L25.6538 18.6814C25.9101 18.7545 26.0177 18.8741 26.0679 19.0625L26.0687 19.0657C26.1346 19.3064 26.0829 19.758 25.702 20.5579L24.0611 23.0738L24.0609 23.0741C23.4514 24.0101 22.867 24.8902 22.1217 25.5741L21.789 25.8793L22.0588 26.2413C22.0937 26.2881 22.1256 26.3303 22.1562 26.3709C22.1975 26.4256 22.2366 26.4774 22.2781 26.5338C22.5967 26.9695 22.9447 27.4431 23.3939 27.8719L23.4731 27.9949L23.6478 28.0486L33.1618 30.9695L31.7214 32.6343C30.0916 34.1488 27.901 35.3839 25.6976 36.2344ZM17.2015 8.26544C17.2016 8.26553 17.2017 8.26759 17.2013 8.27134C17.2013 8.26722 17.2014 8.26535 17.2015 8.26544ZM11.3231 18.7665C11.2183 18.9756 11.1704 19.2098 11.1794 19.469C11.1974 20.021 11.4727 20.6901 11.9995 21.4261L11.3231 18.7665Z" fill="white" stroke="#F7F8FC"/>
</g>
</svg>
