<svg width="19" height="17" viewBox="0 0 19 17" fill="none" xmlns="http://www.w3.org/2000/svg">
<path d="M17.8333 16V14.3333C17.8333 12.7801 16.771 11.4751 15.3333 11.105M12.4167 1.2423C13.6383 1.73679 14.5 2.93443 14.5 4.33333C14.5 5.73224 13.6383 6.92988 12.4167 7.42437M13.6667 16C13.6667 14.4469 13.6667 13.6703 13.4129 13.0577C13.0746 12.241 12.4257 11.592 11.6089 11.2537C10.9964 11 10.2198 11 8.66666 11H6.16666C4.61352 11 3.83695 11 3.22438 11.2537C2.40762 11.592 1.7587 12.241 1.42039 13.0577C1.16666 13.6703 1.16666 14.4469 1.16666 16M10.75 4.33333C10.75 6.17428 9.25761 7.66667 7.41666 7.66667C5.57571 7.66667 4.08332 6.17428 4.08332 4.33333C4.08332 2.49238 5.57571 1 7.41666 1C9.25761 1 10.75 2.49238 10.75 4.33333Z" stroke="#344054" stroke-width="2" stroke-linecap="round" stroke-linejoin="round"/>
</svg>
