<svg width="17" height="18" viewBox="0 0 17 18" fill="none" xmlns="http://www.w3.org/2000/svg">
<g opacity="0.5">
<path fill-rule="evenodd" clip-rule="evenodd" d="M16.1529 12.7759V15.0616C16.1546 15.4907 15.9754 15.9006 15.6592 16.1907C15.343 16.4807 14.9192 16.624 14.4919 16.5854C12.1474 16.3307 9.89533 15.5295 7.91667 14.2464C6.07577 13.0766 4.51502 11.5158 3.34524 9.67494C2.0576 7.68729 1.25628 5.42427 1.00619 3.06923C0.967693 2.64323 1.11002 2.22066 1.39839 1.90475C1.68677 1.58884 2.09464 1.40868 2.52238 1.40828H4.80809C5.57294 1.40075 6.22486 1.9614 6.3319 2.71875C6.42838 3.45023 6.60729 4.16845 6.86524 4.85971C7.07456 5.41656 6.94068 6.04432 6.52238 6.46733L5.55476 7.43494C6.63937 9.34241 8.21873 10.9218 10.1262 12.0064L11.0938 11.0388C11.5168 10.6205 12.1446 10.4866 12.7014 10.6959C13.3927 10.9538 14.1109 11.1328 14.8424 11.2292C15.6085 11.3373 16.172 12.0024 16.1529 12.7759Z" stroke="#2D3A45" stroke-width="1.4" stroke-linecap="round" stroke-linejoin="round"/>
</g>
</svg>
