<svg width="24" height="9" viewBox="0 0 24 9" fill="none" xmlns="http://www.w3.org/2000/svg">
<g clip-path="url(#clip0_134_8)">
<path d="M11.5228 0.0242822C10.8129 0.113001 10.4412 0.236223 9.37875 0.738966C8.64978 1.08399 8.04468 1.43394 7.36811 1.89232C7.07271 2.08948 6.77254 2.28663 6.70107 2.32606C6.62484 2.36549 6.23414 2.44435 5.82916 2.5035C4.03292 2.7598 1.94604 3.28719 1.55058 3.58785C1.11225 3.91315 0.697729 4.63769 0.559557 5.31295C0.511911 5.55939 0.492853 5.84526 0.502382 6.17549C0.521441 6.72753 0.611967 6.98876 0.869253 7.29927C1.05984 7.52107 1.54582 7.77737 1.77928 7.77737H1.95557L1.88887 7.46685C1.84122 7.26477 1.82693 7.00847 1.84122 6.71767C1.90316 5.47067 2.68455 4.40111 3.86616 3.94272C4.29497 3.78007 5.09065 3.73571 5.54328 3.854C6.38185 4.07087 7.16323 4.72148 7.53963 5.5101C7.89221 6.25436 7.96368 6.97397 7.75404 7.7133L7.72545 7.82666H12.0469C15.8824 7.82666 16.3636 7.8168 16.3398 7.75273C16.2635 7.54079 16.2064 6.9789 16.2302 6.64866C16.2921 5.87483 16.5637 5.2883 17.145 4.69191C17.5643 4.25817 17.9931 3.99694 18.5267 3.85893C18.8888 3.76529 19.594 3.76529 19.9561 3.85893C20.6565 4.0413 21.395 4.59826 21.7857 5.23901C22.1621 5.85512 22.3431 6.71274 22.224 7.35349C22.1954 7.51614 22.1811 7.65415 22.1906 7.66894C22.2288 7.70837 22.8958 7.47671 23.1769 7.32885C23.6343 7.09226 23.7534 6.86061 23.8439 6.02763C23.9488 5.13058 23.7725 4.11031 23.3675 3.21818C23.1054 2.64644 22.9339 2.49857 22.3336 2.36056C21.7237 2.2127 21.2091 2.01554 19.9751 1.4438C19.4224 1.1875 18.8269 0.931191 18.6553 0.876973C17.7024 0.581242 15.2392 0.172148 13.624 0.0390689C13.0475 -0.00529082 11.8373 -0.0151484 11.5228 0.0242822ZM12.6901 1.80853V2.59222L12.1088 2.62179C11.7849 2.63658 10.8367 2.67601 10.0029 2.70558C8.57354 2.75487 8.0685 2.74501 8.0685 2.65629C8.0685 2.55772 9.43116 1.81839 10.4412 1.37479C10.9796 1.13821 11.0654 1.11356 11.5371 1.07906C11.8182 1.05442 12.1898 1.0347 12.3709 1.02977L12.6901 1.02484V1.80853ZM14.4054 1.14806C15.0724 1.19242 16.0634 1.34522 17.1402 1.57195C17.6643 1.68038 18.1074 1.77896 18.1312 1.79374C18.1503 1.80853 18.1027 1.95147 18.0264 2.11412C17.9025 2.36056 17.8644 2.40492 17.7501 2.40492C17.6786 2.40492 16.8067 2.43942 15.8109 2.47885C14.8151 2.51829 13.9289 2.55279 13.8479 2.55279H13.6907V1.81346V1.07413L13.8241 1.09878C13.8956 1.10863 14.1576 1.13328 14.4054 1.14806Z" fill="#F6350D"/>
<path d="M4.41387 4.84484C3.80877 5.01242 3.32755 5.41659 3.07026 5.96369C2.51757 7.14169 3.09409 8.52669 4.29952 8.91114C5.26196 9.22166 6.29587 8.74849 6.74374 7.78737C6.87238 7.50642 6.90097 7.38813 6.91526 7.00861C6.94861 6.31364 6.7628 5.84047 6.2911 5.37223C5.75747 4.8547 5.07138 4.66247 4.41387 4.84484Z" fill="#F6350D"/>
<path d="M18.8404 4.84981C18.2591 5.01247 17.7493 5.44621 17.4873 6.00317C17.3634 6.27425 17.3348 6.39747 17.3205 6.77207C17.2967 7.31917 17.3729 7.63462 17.6397 8.06343C17.9971 8.63517 18.6689 9.00977 19.3359 9.00977C20.003 9.00977 20.6748 8.63517 21.0321 8.06343C21.2989 7.63462 21.3752 7.31917 21.3513 6.77207C21.337 6.39747 21.3085 6.27425 21.1846 6.00317C20.7558 5.09133 19.7504 4.59351 18.8404 4.84981Z" fill="#F6350D"/>
</g>
<defs>
<clipPath id="clip0_134_8">
<rect width="24" height="9" fill="white"/>
</clipPath>
</defs>
</svg>
